HIERARCHY
ROOT RootJoint
{
    OFFSET   0.000000   0.000000   0.000000
    CHANNELS 6 Xposition Yposition Zposition Xrotation Yrotation Zrotation
    JOINT pelvis_lowerback
    {
        OFFSET   0.000000   0.093605   0.000000
        CHANNELS 3 Xrotation Yrotation Zrotation
        JOINT lowerback_torso
        {
            OFFSET   0.000000   0.100000   0.000000
            CHANNELS 3 Xrotation Yrotation Zrotation
            JOINT torso_head
            {
                OFFSET   0.000000   0.282350   0.000000
                CHANNELS 3 Xrotation Yrotation Zrotation
                End Site
                {
                    OFFSET   0.000000   0.192650   0.000000
                }
            }
            JOINT rTorso_Clavicle
            {
                OFFSET  -0.001000   0.157500   0.000000
                CHANNELS 3 Xrotation Yrotation Zrotation
                JOINT rShoulder
                {
                    OFFSET  -0.117647   0.000000   0.000000
                    CHANNELS 3 Xrotation Yrotation Zrotation
                    JOINT rElbow
                    {
                        OFFSET  -0.245000   0.000000   0.000000
                        CHANNELS 3 Xrotation Yrotation Zrotation
                        JOINT rWrist
                        {
                            OFFSET  -0.240000   0.000000   0.000000
                            CHANNELS 3 Xrotation Yrotation Zrotation
                            End Site
                            {
                                OFFSET  -0.116353  -0.002500   0.000000
                            }
                        }
                    }
                }
            }
            JOINT lTorso_Clavicle
            {
                OFFSET   0.001000   0.157500   0.000000
                CHANNELS 3 Xrotation Yrotation Zrotation
                JOINT lShoulder
                {
                    OFFSET   0.117647   0.000000   0.000000
                    CHANNELS 3 Xrotation Yrotation Zrotation
                    JOINT lElbow
                    {
                        OFFSET   0.245000   0.000000   0.000000
                        CHANNELS 3 Xrotation Yrotation Zrotation
                        JOINT lWrist
                        {
                            OFFSET   0.240000   0.000000   0.000000
                            CHANNELS 3 Xrotation Yrotation Zrotation
                            End Site
                            {
                                OFFSET   0.116353  -0.002500   0.000000
                            }
                        }
                    }
                }
            }
        }
    }
    JOINT rHip
    {
        OFFSET  -0.100000  -0.051395   0.000000
        CHANNELS 3 Xrotation Yrotation Zrotation
        JOINT rKnee
        {
            OFFSET   0.000000  -0.410000   0.000000
            CHANNELS 3 Xrotation Yrotation Zrotation
            JOINT rAnkle
            {
                OFFSET   0.000000  -0.390000   0.000000
                CHANNELS 3 Xrotation Yrotation Zrotation
                JOINT rToeJoint
                {
                    OFFSET   0.000000  -0.050000   0.130000
                    CHANNELS 3 Xrotation Yrotation Zrotation
                    End Site
                    {
                        OFFSET  -0.010000   0.002000   0.060000
                    }
                }
            }
        }
    }
    JOINT lHip
    {
        OFFSET   0.100000  -0.051395   0.000000
        CHANNELS 3 Xrotation Yrotation Zrotation
        JOINT lKnee
        {
            OFFSET   0.000000  -0.410000   0.000000
            CHANNELS 3 Xrotation Yrotation Zrotation
            JOINT lAnkle
            {
                OFFSET   0.000000  -0.390000   0.000000
                CHANNELS 3 Xrotation Yrotation Zrotation
                JOINT lToeJoint
                {
                    OFFSET   0.000000  -0.050000   0.130000
                    CHANNELS 3 Xrotation Yrotation Zrotation
                    End Site
                    {
                        OFFSET   0.010000   0.002000   0.060000
                    }
                }
            }
        }
    }
}
MOTION
Frames: 10
Frame Time:   0.008333
 -2.396046   0.912698   4.086268  -5.366750  11.955479   1.149419   4.855726   0.008275  -1.772538  -8.791939  -2.824214  -2.344326  -1.865523  -2.869332   0.831392 -13.075780   8.108730 -11.673640 -41.061797  11.777591   2.990658  -0.003228  63.376370   0.005484   4.890054   7.579205 -21.102404 -12.719202 -10.199587  11.915814 -47.294705 -14.477910  -5.990344   0.004574 -59.952434   0.006164   0.186325 -10.221909  22.897416   7.946138 -14.510062  -6.402469   8.070187   0.000447  -0.000643  -6.725765 -15.965221   5.620400  -3.010595  -0.000671   0.001285   7.360168   5.545723   5.078851   8.017085   0.000456  -0.000137  -9.464166   7.610654  -2.284333  -0.061086   0.000194   0.000279
 -2.394506   0.912899   4.086109  -5.388763  11.912364   1.059074   4.826847   0.006247  -1.759432  -8.809864  -2.850417  -2.300495  -1.860225  -2.803002   0.797549 -13.097402   8.122710 -11.683906 -41.144633  11.803667   3.087238  -0.003007  63.533589   0.004809   4.834055   7.596484 -21.064100 -12.737255 -10.335002  11.989037 -47.443324 -14.521773  -5.965960   0.005898 -59.377201   0.007578   0.110830 -10.238734  22.894115   7.882564 -14.501657  -6.442622   8.184077   0.000450  -0.000588  -6.422994 -15.938416   5.798575  -3.426643  -0.000585   0.001246   7.364752   5.590773   5.071698   8.097185   0.000431  -0.000125  -9.531252   7.615410  -2.250773  -0.088628   0.000140   0.000223
 -2.392967   0.913126   4.085936  -5.402135  11.883134   0.958465   4.800021   0.001215  -1.740107  -8.831413  -2.880360  -2.247412  -1.856110  -2.739735   0.766073 -13.121734   8.161607 -11.745735 -41.228302  11.858159   3.162725  -0.002832  63.678352   0.004228   4.766876   7.578104 -21.016581 -12.758140 -10.497406  12.118175 -47.590669 -14.593889  -5.931361   0.006837 -58.823958   0.008388  -0.008845 -10.137888  22.868681   7.813901 -14.484183  -6.473132   8.296136   0.000456  -0.000522  -6.098304 -15.901942   5.968148  -3.876760  -0.000574   0.001121   7.363514   5.627988   5.074482   8.161636   0.000398  -0.000111  -9.588470   7.616044  -2.214100  -0.112904   0.000100   0.000179
 -2.391424   0.913370   4.085770  -5.413580  11.862216   0.849953   4.775074  -0.004310  -1.713239  -8.854320  -2.910805  -2.189633  -1.850901  -2.680617   0.737200 -13.147223   8.214667 -11.833652 -41.310991  11.930862   3.224778  -0.002697  63.818657   0.003750   4.708142   7.574425 -20.976750 -12.779954 -10.669221  12.273080 -47.733568 -14.686824  -5.892968   0.007368 -58.312300   0.008700  -0.124674 -10.037753  22.840023   7.742100 -14.472743  -6.494446   8.413492   0.000464  -0.000470  -5.755702 -15.872585   6.138378  -3.475597  -0.000353   0.000751   7.364423   5.660619   5.085507   8.214172   0.000362  -0.000096  -9.639904   7.614595  -2.176505  -0.134918   0.000068   0.000143
 -2.389871   0.913594   4.085609  -5.421171  11.850431   0.753110   4.749159  -0.011566  -1.694561  -8.879250  -2.941249  -2.135741  -1.845232  -2.625485   0.710224 -13.172655   8.275685 -11.936138 -41.391232  12.013717   3.277383  -0.002581  63.953890   0.003350   4.658961   7.589240 -20.945198 -12.801552 -10.843853  12.442304 -47.870584 -14.792309  -5.852984   0.007590 -57.839472   0.008672  -0.227913  -9.960201  22.811370   7.673606 -14.452539  -6.527097   8.520265   0.000466  -0.000406  -5.434782 -15.834455   6.282736  -4.099976  -0.000554   0.000658   7.363127   5.686898   5.084418   8.262838   0.000331  -0.000082  -9.688308   7.608955  -2.142461  -0.156336   0.000043   0.000115
 -2.388343   0.913758   4.085478  -5.428077  11.830887   0.684647   4.722497  -0.014894  -1.699372  -8.905413  -2.966296  -2.093516  -1.839338  -2.573862   0.684568 -13.196399   8.342606 -12.045814 -41.467905  12.102385   3.324080  -0.002468  64.083524   0.003004   4.617413   7.618196 -20.918697 -12.823430 -11.015505  12.619826 -48.001347 -14.904091  -5.811155   0.007614 -57.401278   0.008459  -0.319929  -9.902213  22.782957   7.605200 -14.442156  -6.574753   8.644895   0.000468  -0.000371  -5.055231 -15.807790   6.419531  -5.238974  -0.001139   0.000945   7.365745   5.715328   5.054819   8.313233   0.000307  -0.000072  -9.738778   7.605302  -2.116736  -0.178190   0.000021   0.000092
 -2.386810   0.913950   4.085359  -5.432519  11.817511   0.599567   4.694374  -0.018158  -1.681819  -8.933954  -2.989900  -2.048772  -1.834056  -2.525755   0.659842 -13.219004   8.410249 -12.155637 -41.540781  12.192805   3.365651  -0.002357  64.207798   0.002715   4.584873   7.664576 -20.896506 -12.843447 -11.179623  12.787956 -48.124429 -15.014497  -5.772725   0.007438 -56.996748   0.008080  -0.399242  -9.867566  22.761013   7.546397 -14.430679  -6.612530   8.732396   0.000449  -0.000327  -4.787302 -15.782296   6.541471  -5.630916  -0.001099   0.000836   7.367261   5.740411   5.042546   8.357382   0.000282  -0.000063  -9.786782   7.601343  -2.089553  -0.198502   0.000005   0.000074
 -2.385270   0.914205   4.085225  -5.445030  11.761022   0.486081   4.680301   0.003542  -1.633744  -8.958854  -3.010449  -1.986598  -1.842494  -2.481177   0.630466 -13.251278   8.550227 -12.385756 -41.555318  12.341983   3.370607  -0.001579  64.086777   0.002029   4.523711   7.725055 -20.837883 -12.865550 -11.422594  13.088901 -48.202550 -15.120620  -5.677774   0.008168 -56.297759   0.008100  -0.498380  -9.875229  22.701314   7.455214 -14.376815  -6.644651   8.885063   0.000497  -0.000327  -4.447478 -15.710781   6.740051  -6.155757  -0.000913   0.000684   7.407859   5.793915   5.049419   8.347659   0.000217  -0.000048  -9.817158   7.618734  -2.037337  -0.212720  -0.000002   0.000059
 -2.383730   0.914480   4.085094  -5.453828  11.716390   0.364835   4.666972   0.018096  -1.580368  -8.984751  -3.033785  -1.918330  -1.850543  -2.440323   0.605175 -13.283374   8.707866 -12.656165 -41.573925  12.510616   3.359912  -0.000928  63.964829   0.001485   4.440780   7.714620 -20.746865 -12.889290 -11.676841  13.427248 -48.282210 -15.246345  -5.575518   0.008721 -55.630601   0.007945  -0.634977  -9.776743  22.614401   7.358211 -14.319500  -6.668997   9.046024   0.000547  -0.000312  -4.087656 -15.633510   6.927188  -6.714827  -0.000844   0.000483   7.448196   5.840322   5.064566   8.324914   0.000155  -0.000032  -9.840117   7.632926  -1.982195  -0.225514  -0.000006   0.000047
 -2.382187   0.914751   4.084977  -5.460440  11.682975   0.246192   4.652289   0.029107  -1.529393  -9.013041  -3.058304  -1.851132  -1.856445  -2.402395   0.582239 -13.315619   8.870374 -12.939307 -41.595681  12.688769   3.340968  -0.000419  63.854902   0.001053   4.362724   7.707084 -20.658935 -12.912726 -11.931703  13.776143 -48.361363 -15.387162  -5.473460   0.009027 -55.012035   0.007666  -0.766909  -9.678644  22.526267   7.262545 -14.263609  -6.693654   9.204279   0.000586  -0.000285  -3.727705 -15.558167   7.100694  -7.273374  -0.000850   0.000283   7.487300   5.880014   5.078291   8.298222   0.000102  -0.000019  -9.860330   7.642459  -1.929114  -0.238169  -0.000010   0.000038
